<svg xmlns="http://www.w3.org/2000/svg" viewBox="0 0 75.92 81.51"><defs><style>.cls-1{isolation:isolate;}.cls-2{fill:#3290f0;}.cls-3{fill:#c3cfd9;mix-blend-mode:multiply;}.cls-4{fill:#cfdce6;}.cls-4,.cls-7{mix-blend-mode:soft-light;}.cls-5{fill:#80b9fc;}.cls-6{fill:#4c9cfb;}.cls-7,.cls-8{fill:#fff;}.cls-8{fill-rule:evenodd;}</style></defs><g class="cls-1"><g id="Слой_1" data-name="Слой 1"><path class="cls-2" d="M70.46,31.72h7.21v81.51H70.46c-19,0-34.36-18.24-34.36-40.75S51.49,31.72,70.46,31.72Z" transform="translate(-36.1 -31.72)"/><path class="cls-3" d="M77.67,111v2.21H70.46a31,31,0,0,1-21.33-8.81l28.54.31Z" transform="translate(-36.1 -31.72)"/><path class="cls-4" d="M62.45,59.58l-24.51-.23a42.64,42.64,0,0,1,7.64-15l17,.16Z" transform="translate(-36.1 -31.72)"/><path class="cls-4" d="M62.6,41.69l-14.5-.14q1.11-1.14,2.31-2.16l12.21.12Z" transform="translate(-36.1 -31.72)"/><ellipse class="cls-5" cx="41.56" cy="40.75" rx="34.36" ry="40.75"/><ellipse class="cls-6" cx="41.56" cy="40.75" rx="33.23" ry="39.41"/><path class="cls-4" d="M94.12,106.72,46.26,59.61A40.93,40.93,0,0,1,54,44.88l51,50.16A36.53,36.53,0,0,1,94.12,106.72Z" transform="translate(-36.1 -31.72)"/><path class="cls-4" d="M45.59,82.77l29.45,29C60.86,110.44,49.18,98.58,45.59,82.77Z" transform="translate(-36.1 -31.72)"/><path class="cls-4" d="M109.42,60.83,81.47,33.33a29.12,29.12,0,0,1,9.53,3l14.12,13.9A42.87,42.87,0,0,1,109.42,60.83Z" transform="translate(-36.1 -31.72)"/><path class="cls-4" d="M106.75,91.54,56.51,42.08c.6-.59,1.23-1.15,1.87-1.69L107.82,89C107.49,89.89,107.13,90.72,106.75,91.54Z" transform="translate(-36.1 -31.72)"/><ellipse class="cls-7" cx="40.8" cy="41.86" rx="23.64" ry="28.04"/><ellipse class="cls-5" cx="41.56" cy="40.75" rx="23.64" ry="28.04"/><path class="cls-3" d="M99.72,74.85c0-15.48-10.58-28-23.64-28-7.06,0-13.39,3.67-17.72,9.49,4.28-7.18,11.33-11.87,19.31-11.87,13,0,23.63,12.55,23.63,28A31,31,0,0,1,95.39,91,31.64,31.64,0,0,0,99.72,74.85Z" transform="translate(-36.1 -31.72)"/><path class="cls-8" d="M69.92,86.61H65c-1,0-1.56,0-1.88-.25a1.69,1.69,0,0,1-.57-1.23A5.72,5.72,0,0,1,63.27,83L75.52,56c.52-1.14.78-1.71,1.12-1.93a1.07,1.07,0,0,1,1.14,0c.33.22.6.79,1.12,1.93l2.52,5.5v0a11.57,11.57,0,0,1,1,2.51,5.71,5.71,0,0,1,0,2.18,11,11,0,0,1-1,2.54L75,83l0,0a11,11,0,0,1-1.25,2.35,3.7,3.7,0,0,1-1.53,1.1A7.21,7.21,0,0,1,69.92,86.61Z" transform="translate(-36.1 -31.72)"/><path class="cls-8" d="M82.45,86.61h7.11c1,0,1.58,0,1.89-.26A1.66,1.66,0,0,0,92,85.11a5.38,5.38,0,0,0-.72-2L91.24,83l-3.56-7.61,0-.09c-.5-1.06-.75-1.59-1.08-1.8a1,1,0,0,0-1.13,0c-.33.22-.59.77-1.11,1.9L80.77,83l0,0A6,6,0,0,0,80,85.12a1.72,1.72,0,0,0,.58,1.24C80.87,86.61,81.4,86.61,82.45,86.61Z" transform="translate(-36.1 -31.72)"/></g></g></svg>