<svg xmlns="http://www.w3.org/2000/svg" viewBox="0 0 99.92 107.27"><defs><style>.cls-1{isolation:isolate;}.cls-2{fill:#3290f0;}.cls-3{fill:#c3cfd9;mix-blend-mode:multiply;}.cls-4{fill:#cfdce6;}.cls-4,.cls-7{mix-blend-mode:soft-light;}.cls-5{fill:#b7d4fb;}.cls-6{fill:#4c9cfb;}.cls-7,.cls-9{fill:#fff;}.cls-8{fill:#80b9fc;}</style></defs><g class="cls-1"><g id="Слой_1" data-name="Слой 1"><path class="cls-2" d="M77,20.19H67.5V127.46H77c25,0,45.22-24,45.22-53.63S102,20.19,77,20.19Z" transform="translate(-22.28 -20.19)"/><path class="cls-3" d="M67.5,124.56v2.9H77c10.61,0,20.36-4.34,28.07-11.6l-37.55.41Z" transform="translate(-22.28 -20.19)"/><path class="cls-4" d="M87.53,56.86l32.26-.31a56.08,56.08,0,0,0-10.07-19.69l-22.39.21Z" transform="translate(-22.28 -20.19)"/><path class="cls-4" d="M87.33,33.3l19.08-.18c-1-1-2-1.94-3-2.83l-16.07.15Z" transform="translate(-22.28 -20.19)"/><ellipse class="cls-5" cx="45.22" cy="53.64" rx="45.22" ry="53.64"/><ellipse class="cls-6" cx="45.22" cy="53.64" rx="43.74" ry="51.87"/><path class="cls-4" d="M45.84,118.89l63-62A54.15,54.15,0,0,0,98.72,37.51l-67.07,66A47.61,47.61,0,0,0,45.84,118.89Z" transform="translate(-22.28 -20.19)"/><path class="cls-4" d="M109.72,87.38,71,125.53C89.62,123.79,105,108.18,109.72,87.38Z" transform="translate(-22.28 -20.19)"/><path class="cls-4" d="M25.71,58.5,62.49,22.3a38.51,38.51,0,0,0-12.54,4L31.37,44.6A56,56,0,0,0,25.71,58.5Z" transform="translate(-22.28 -20.19)"/><path class="cls-4" d="M29.22,98.91,95.34,33.83c-.79-.79-1.62-1.52-2.46-2.24l-65.07,64C28.25,96.74,28.72,97.84,29.22,98.91Z" transform="translate(-22.28 -20.19)"/><ellipse class="cls-7" cx="46.23" cy="55.09" rx="31.11" ry="36.9"/><ellipse class="cls-8" cx="45.22" cy="53.64" rx="31.11" ry="36.9"/><path class="cls-3" d="M38.47,77c0-20.38,13.93-36.9,31.11-36.9,9.29,0,17.63,4.84,23.33,12.5C87.27,43.1,78,36.93,67.5,36.93c-17.18,0-31.11,16.52-31.11,36.9a40.81,40.81,0,0,0,7.79,24.4A41.52,41.52,0,0,1,38.47,77Z" transform="translate(-22.28 -20.19)"/><polygon class="cls-9" points="38.16 50.2 42.86 44.16 43.85 42.89 46.2 39.86 54.22 50.2 58.88 44.16 46.2 27.82 33.49 44.16 38.16 50.2"/><polygon class="cls-9" points="41.53 54.49 46.21 48.47 50.89 54.49 46.21 60.52 41.53 54.49"/><polygon class="cls-9" points="54.22 58.82 46.2 69.14 43.39 65.51 42.87 64.85 38.16 58.82 33.49 64.82 46.2 81.17 58.88 64.82 54.22 58.82"/><polygon class="cls-9" points="25.48 54.51 30.16 48.48 34.84 54.51 30.16 60.54 25.48 54.51"/><polygon class="cls-9" points="57.56 54.51 62.24 48.48 66.92 54.51 62.24 60.54 57.56 54.51"/></g></g></svg>