<svg xmlns="http://www.w3.org/2000/svg" viewBox="0 0 142 142"><defs><style>.cls-1{isolation:isolate;}.cls-2{fill:#b7d4fb;}.cls-3{fill:#4c9cfb;}.cls-4{fill:#cfdce6;}.cls-4,.cls-5{mix-blend-mode:soft-light;}.cls-5,.cls-9{fill:#fff;}.cls-6{fill:#80b9fc;}.cls-7{fill:#c3cfd9;mix-blend-mode:multiply;}.cls-10,.cls-8{fill:none;stroke:#fff;stroke-miterlimit:10;}.cls-8{stroke-width:2.45px;}.cls-10{stroke-width:1.23px;}</style></defs><g class="cls-1"><g id="Слой_1" data-name="Слой 1"><circle class="cls-2" cx="75.95" cy="73.68" r="71" transform="translate(-34.81 72.6) rotate(-45)"/><circle class="cls-3" cx="75.95" cy="73.68" r="69.19" transform="translate(-34.81 72.6) rotate(-45)"/><path class="cls-4" d="M125,24.9,27.17,122.74A69.38,69.38,0,0,0,50.32,138l89.89-89.9A69.2,69.2,0,0,0,125,24.9Z" transform="translate(-4.95 -2.68)"/><path class="cls-4" d="M143.4,89.09l-52.05,52A69.26,69.26,0,0,0,143.4,89.09Z" transform="translate(-4.95 -2.68)"/><path class="cls-4" d="M42,13.42,15.69,39.71A68.51,68.51,0,0,0,9,56.19L58.45,6.73A68.67,68.67,0,0,0,42,13.42Z" transform="translate(-4.95 -2.68)"/><path class="cls-4" d="M115.89,17.21,19.47,113.63c1.13,1.58,2.31,3.12,3.56,4.61L120.5,20.77Q118.28,18.9,115.89,17.21Z" transform="translate(-4.95 -2.68)"/><circle class="cls-5" cx="72.36" cy="72.29" r="50.13"/><circle class="cls-6" cx="75.95" cy="73.68" r="50.13" transform="translate(-18.16 127.99) rotate(-76.72)"/><path class="cls-7" d="M28.54,76.41a50.12,50.12,0,0,1,84.19-36.78A50.12,50.12,0,1,0,41.9,110.46,49.91,49.91,0,0,1,28.54,76.41Z" transform="translate(-4.95 -2.68)"/><path class="cls-8" d="M77,53.15c2.41,0,17.27.1,21.75,9,1.78,3.54,1.7,8,1.57,14.64a10.46,10.46,0,0,1-.57,3.32,11.54,11.54,0,0,1-2,3.33C93.13,88.72,77,88.74,77,88.74c-14.61,0-20.37-3.82-21.49-5.66a13.87,13.87,0,0,1-1.33-3,12.82,12.82,0,0,1-.5-3.32c-.2-7.75-.31-11.63.83-14.31C58.45,53.22,75.86,53.14,77,53.15Z" transform="translate(-4.95 -2.68)"/><path class="cls-8" d="M77,61.63c7.18,0,15.56,0,17.79,4.6,1.5,3.09.49,8.83.31,9.82a10.76,10.76,0,0,1-.61,2.45C92,84,81,84,77,84c-3.28,0-15.78,0-17.8-5.52a13.38,13.38,0,0,1-.31-2.45c-.32-3.92-.63-7.69.31-9.82C61.26,61.63,70.42,61.63,77,61.63Z" transform="translate(-4.95 -2.68)"/><line class="cls-8" x1="72.08" y1="50.16" x2="72.08" y2="44.94"/><circle class="cls-8" cx="72.08" cy="40.03" r="4.3"/><path class="cls-9" d="M46.65,66.34a2.63,2.63,0,0,1,.62-.61c.37-.28,2.5-1.58,3.68-.92.93.51.61,1.89.61,7,0,3.87.21,5-.61,5.53-1.08.62-3.16-.41-3.68-.92-.36-.36-.6-.57-.66-.66a2,2,0,0,1-.26-.88c-.09-1.08,0-2.9,0-3.37,0-1.66-.31-3.71,0-4.61A2.82,2.82,0,0,1,46.65,66.34Z" transform="translate(-4.95 -2.68)"/><path class="cls-9" d="M107.24,66.49a3,3,0,0,0-.61-.61c-.38-.27-2.51-1.57-3.68-.92-.94.52-.62,1.9-.62,7.06,0,3.87-.2,5,.62,5.52,1.07.63,3.16-.4,3.68-.92a6.73,6.73,0,0,0,.65-.66,1.87,1.87,0,0,0,.27-.87c.08-1.09,0-2.9,0-3.38,0-1.66.31-3.7,0-4.6A3.06,3.06,0,0,0,107.24,66.49Z" transform="translate(-4.95 -2.68)"/><path class="cls-8" d="M76.87,109.28a12.34,12.34,0,0,0,8.4-3.19c6.87-5.65,8-17,5.26-18.58-.75-.43-1.3.18-4.3.92a34.89,34.89,0,0,1-9.2.92,42.65,42.65,0,0,1-10.13-.92c-1.74-.39-2.21-.63-2.76-.31-2.47,1.47-1.26,11.11,4.33,16.81C69.7,106.18,72.53,109.08,76.87,109.28Z" transform="translate(-4.95 -2.68)"/><circle class="cls-9" cx="61.65" cy="71.33" r="3.99"/><circle class="cls-9" cx="82.51" cy="71.64" r="3.99"/><path class="cls-8" d="M55.24,101.93c-2.23-2.36,1-8.12,1.23-8.59,2-3.55,5.6-6.54,6.75-5.83.8.5-.37,2.33,0,6.44.29,3.22,1.16,3.7.61,5.22a6.2,6.2,0,0,1-6.44,3.68A3.46,3.46,0,0,1,55.24,101.93Z" transform="translate(-4.95 -2.68)"/><path class="cls-8" d="M99.49,102.2c2.16-2.3-.85-7.88-1.23-8.59-2-3.79-5.66-7.09-6.81-6.41-.84.5.5,2.57.06,7-.32,3.17-1.17,3.69-.61,5.22a6.22,6.22,0,0,0,6.44,3.68A3.51,3.51,0,0,0,99.49,102.2Z" transform="translate(-4.95 -2.68)"/><path class="cls-10" d="M77,109.73c2.62.21,4.49-2.31,5.12-3.19,3.61-5,4.73-15.18,2.9-17.69a1.51,1.51,0,0,0-.59-.47c-.4-.26-5.28.65-7.44.66a21.83,21.83,0,0,1-4.91-.61,3.81,3.81,0,0,0-2,0h0a1.4,1.4,0,0,0-.59.46c-1.72,2.38-.59,11.39,2.39,16.53C72.57,106.5,74.32,109.51,77,109.73Z" transform="translate(-4.95 -2.68)"/><path class="cls-10" d="M56.32,96.17a6.32,6.32,0,0,1,5.82,4.16" transform="translate(-4.95 -2.68)"/><path class="cls-10" d="M92.7,100.81a6.36,6.36,0,0,1,5.57-4.5" transform="translate(-4.95 -2.68)"/><path class="cls-10" d="M68.74,95.18a16.21,16.21,0,0,0,17.18,0" transform="translate(-4.95 -2.68)"/></g></g></svg>