<svg id="Слой_1" data-name="Слой 1" xmlns="http://www.w3.org/2000/svg" viewBox="0 0 374.15 268.86"><defs><style>.cls-1{fill:#9cc5f2;}.cls-2,.cls-6,.cls-7,.cls-8{fill:none;}.cls-2{stroke:#4862aa;}.cls-2,.cls-6,.cls-7,.cls-8,.cls-9{stroke-miterlimit:10;}.cls-2,.cls-9{stroke-width:3px;}.cls-3{fill:#cbe3fe;}.cls-4{fill:#4862aa;}.cls-5{fill:#ebf7ff;}.cls-6{stroke:#fff;stroke-width:2px;}.cls-6,.cls-7{stroke-linecap:round;}.cls-7,.cls-8,.cls-9{stroke:#80b9fc;}.cls-7,.cls-8{stroke-width:12px;}.cls-9{font-size:97.77px;fill:#80b9fc;font-family:MyriadPro-Regular, Myriad Pro;letter-spacing:0.07em;}</style></defs><rect class="cls-1" width="210.95" height="268.86" rx="27.24"/><rect class="cls-2" x="20.16" y="25.84" width="169.59" height="216.14" rx="27.24"/><rect class="cls-3" x="13.96" y="70.64" width="14.99" height="28.11" rx="7.05"/><rect class="cls-3" x="13.04" y="170.97" width="14.99" height="28.11" rx="7.05"/><circle class="cls-3" cx="76" cy="133.91" r="41.88"/><circle class="cls-4" cx="76" cy="133.91" r="31.24"/><circle class="cls-5" cx="76" cy="133.91" r="21.94"/><line class="cls-6" x1="75.34" y1="97.35" x2="75.34" y2="106.66"/><line class="cls-6" x1="75.34" y1="161.17" x2="75.34" y2="170.47"/><line class="cls-6" x1="112.57" y1="133.25" x2="103.26" y2="133.25"/><line class="cls-6" x1="48.75" y1="133.25" x2="39.44" y2="133.25"/><circle class="cls-3" cx="155.63" cy="124.61" r="17.06"/><circle class="cls-4" cx="155.63" cy="124.61" r="11.89"/><rect class="cls-5" x="150.42" y="123.16" width="10.9" height="35.06" rx="5.27"/><line class="cls-7" x1="302.03" y1="145.54" x2="368.15" y2="68.67"/><circle class="cls-8" cx="315.51" cy="85.7" r="13.04"/><circle class="cls-8" cx="353.86" cy="128.57" r="13.04"/><text class="cls-9" transform="translate(215.21 136.76) scale(1.04 1)">+</text></svg>