<?xml version="1.0" encoding="utf-8"?>
<!-- Generator: Adobe Illustrator 25.4.1, SVG Export Plug-In . SVG Version: 6.00 Build 0)  -->
<svg version="1.1" id="Слой_1" xmlns="http://www.w3.org/2000/svg" xmlns:xlink="http://www.w3.org/1999/xlink" x="0px" y="0px"
	 viewBox="0 0 112.7 95" style="enable-background:new 0 0 112.7 95;" xml:space="preserve">
<style type="text/css">
	.st0{fill:none;stroke:#4862AA;stroke-width:6.61;stroke-miterlimit:10;}
	.st1{fill:none;stroke:#B7D4FB;stroke-width:3.97;stroke-miterlimit:10;}
	.st2{fill:#4862AA;}
	.st3{fill:none;stroke:#80B9FC;stroke-width:3.97;stroke-linecap:round;stroke-miterlimit:10;}
	.st4{fill:none;stroke:#80B9FC;stroke-width:3.97;stroke-miterlimit:10;}
	.st5{fill:#869EB7;}
</style>
<circle class="st0" cx="75.9" cy="36.8" r="33.3"/>
<circle class="st1" cx="75.9" cy="36.8" r="28.2"/>
<path class="st2" d="M46.8,56.6c-2.8-4.5-3.4-8.2-4.5-8.1c-1.3,0.2,0,5.6-3.1,10.6c-0.2,0.3-0.3,0.5-0.5,0.8c-1.9,2.5-3.8,3.5-9,6.6
	c-2.7,1.6-3.6,1.9-4,3c-0.5,1.6,0.4,3.4,0.8,4.1s1.5,2.8,3.3,3.1c1,0.2,1.6-0.3,5.9-3.7c3.1-2.4,5-3.8,7.8-4.8
	c0.3-0.1,0.6-0.2,0.9-0.3c6.1-1.7,10.8,0.7,11.3-0.7S51.1,63.4,46.8,56.6z"/>
<line class="st3" x1="64.8" y1="51.9" x2="90.6" y2="21.8"/>
<circle class="st4" cx="70" cy="28.5" r="5.1"/>
<circle class="st4" cx="85" cy="45.2" r="5.1"/>
<path class="st5" d="M3,82.8L29.1,65c2.9-2,6.8-1.2,8.8,1.7l0,0c2,2.9,1.2,6.8-1.7,8.8L10.1,93.3c-2.9,2-6.8,1.2-8.8-1.7l0,0
	C-0.6,88.7,0.1,84.8,3,82.8z"/>
</svg>
