<svg id="Слой_1" data-name="Слой 1" xmlns="http://www.w3.org/2000/svg" viewBox="0 0 424.68 345.95"><defs><style>.cls-1{fill:#80b9fc;}.cls-2,.cls-4,.cls-5{fill:none;}.cls-2{stroke:#1b1464;stroke-width:5px;}.cls-2,.cls-4,.cls-5,.cls-7{stroke-miterlimit:10;}.cls-3{fill:#1b1464;}.cls-4{stroke:#0071bc;stroke-width:4px;}.cls-5{stroke:#9cc5f2;stroke-linecap:round;stroke-width:15px;}.cls-6{fill:#9cc5f2;}.cls-7{font-size:110px;fill:#fff;stroke:#fff;stroke-width:2px;font-family:Gilroy-Semibold, Gilroy;font-weight:600;}</style></defs><rect class="cls-1" x="266.08" y="128.31" width="28.11" height="100.3"/><rect class="cls-1" x="222.23" y="167.01" width="28.11" height="61.92"/><rect class="cls-1" x="311.71" y="113.65" width="28.11" height="114.61"/><rect class="cls-1" x="354.07" y="70.47" width="28.11" height="157.24"/><line class="cls-2" x1="203.9" y1="230.97" x2="204.29" y2="16.82"/><polygon class="cls-3" points="224.71 33.43 221.04 36.83 204.29 18.74 187.47 36.77 183.82 33.35 204.31 11.4 224.71 33.43"/><line class="cls-2" x1="204.71" y1="228.93" x2="419.26" y2="228.93"/><polygon class="cls-3" points="402.69 249.38 399.28 245.72 417.34 228.94 399.28 212.15 402.69 208.49 424.68 228.94 402.69 249.38"/><polyline class="cls-4" points="213.67 148.68 255.72 112.83 323.16 92.47 365.21 51.73"/><path class="cls-5" d="M49,188.36c-23.14,63.9,9.26,133.14,67,155,45.58,17.26,99.58,2.22,132.7-37.44" transform="translate(-33.98 -36.86)"/><polygon class="cls-6" points="220.94 345.95 205.93 345.4 208.75 271.49 134.82 274.08 134.31 259.08 224.34 255.94 220.94 345.95"/><circle class="cls-1" cx="71.53" cy="65" r="65"/><text class="cls-7" transform="translate(41.5 105.08)">?</text></svg>