<svg id="Слой_1" data-name="Слой 1" xmlns="http://www.w3.org/2000/svg" viewBox="0 0 2181.34 442.65">
  <defs>
    <style>
      .cls-1, .cls-2, .cls-3 {
        fill: none;
        stroke: #3290f0;
        stroke-miterlimit: 10;
        stroke-width: 6.44px;
      }

      .cls-2 {
        stroke-dasharray: 12.74 12.74;
      }

      .cls-3 {
        stroke-dasharray: 12.98 12.98;
      }
    </style>
  </defs>
  <g>
    <g>
      <path class="cls-1" d="M20.57,40.77q0,3.23.24,6.43" transform="translate(-17.35 -40.77)"/>
      <path class="cls-2" d="M22.69,59.79c25,111.75,267.69,199.67,566.24,202.13" transform="translate(-17.35 -40.77)"/>
      <path class="cls-1" d="M595.31,262h6.44" transform="translate(-17.35 -40.77)"/>
    </g>
    <g>
      <line class="cls-1" x1="584.4" y1="221.2" x2="590.85" y2="221.2"/>
      <line class="cls-3" x1="603.82" y1="221.2" x2="1583.62" y2="221.2"/>
      <line class="cls-1" x1="1590.11" y1="221.2" x2="1596.55" y2="221.2"/>
    </g>
    <g>
      <path class="cls-1" d="M2195.47,483.41c0-2.15-.08-4.3-.24-6.43" transform="translate(-17.35 -40.77)"/>
      <path class="cls-2" d="M2193.35,464.39c-24.95-111.75-267.69-199.67-566.24-202.13" transform="translate(-17.35 -40.77)"/>
      <path class="cls-1" d="M1620.73,262.22h-6.45" transform="translate(-17.35 -40.77)"/>
    </g>
  </g>
</svg>
