<svg id="Слой_1" data-name="Слой 1" xmlns="http://www.w3.org/2000/svg" viewBox="0 0 464.4 318.45"><defs><style>.cls-1{fill:#9cc5f2;}.cls-2,.cls-6,.cls-8{fill:none;stroke-miterlimit:10;}.cls-2{stroke:#4862aa;stroke-width:2.86px;}.cls-3{fill:#cbe3fe;}.cls-4{fill:#2e3192;}.cls-5{fill:#ebf7ff;}.cls-6{stroke:#fff;stroke-width:1.9px;}.cls-6,.cls-8{stroke-linecap:round;}.cls-7{fill:#4862aa;}.cls-8{stroke:#9cc5f2;stroke-width:14.28px;}.cls-9{fill:#80b9fc;}.cls-10{fill:#fff;}</style></defs><rect class="cls-1" width="200.89" height="256.03" rx="27.24"/><rect class="cls-2" x="19.2" y="24.61" width="161.5" height="205.83" rx="27.24"/><rect class="cls-3" x="13.29" y="67.27" width="14.28" height="26.77" rx="7.05"/><rect class="cls-3" x="12.42" y="162.81" width="14.28" height="26.77" rx="7.05"/><circle class="cls-3" cx="72.38" cy="127.52" r="39.88"/><circle class="cls-4" cx="72.38" cy="127.52" r="29.75"/><circle class="cls-5" cx="72.38" cy="127.52" r="20.89"/><line class="cls-6" x1="71.74" y1="92.71" x2="71.74" y2="101.57"/><line class="cls-6" x1="71.74" y1="153.48" x2="71.74" y2="162.34"/><line class="cls-6" x1="107.2" y1="126.89" x2="98.33" y2="126.89"/><line class="cls-6" x1="46.42" y1="126.89" x2="37.56" y2="126.89"/><circle class="cls-3" cx="148.2" cy="118.66" r="16.25"/><circle class="cls-7" cx="148.2" cy="118.66" r="11.32"/><rect class="cls-5" x="143.24" y="117.28" width="10.38" height="33.38" rx="5.19"/><path class="cls-8" d="M225,295.05c43.32,39.27,105.62,43.55,147.61,13.33,35.46-25.53,43.22-66.18,44.67-88.31" transform="translate(-19.83 -16.89)"/><polygon class="cls-1" points="446.69 258.02 434.98 266.21 394.66 208.47 340 252.9 331 241.8 397.57 187.69 446.69 258.02"/><path class="cls-9" d="M422.33,44a61.9,61.9,0,1,1-61.9,61.9A61.9,61.9,0,0,1,422.33,44" transform="translate(-19.83 -16.89)"/><path class="cls-10" d="M430,97.64V88.43h21v-14H393.69v14h21.06v9.2c-17.12.79-30,4.18-30,8.24s12.88,7.45,30,8.24v29.5H430v-29.5c17.09-.79,29.93-4.18,29.93-8.23S447.06,98.43,430,97.64m0,14h0c-.43,0-2.63.16-7.55.16-3.93,0-6.69-.11-7.67-.16h0c-15.12-.67-26.4-3.3-26.4-6.45s11.28-5.78,26.4-6.45V109c1,.07,3.83.23,7.74.23,4.69,0,7.05-.19,7.48-.23V98.71c15.1.67,26.36,3.31,26.36,6.45s-11.27,5.77-26.36,6.44" transform="translate(-19.83 -16.89)"/></svg>