<svg xmlns="http://www.w3.org/2000/svg" viewBox="0 0 325.39 411.81"><defs><style>.cls-1{isolation:isolate;}.cls-2{fill:none;stroke:#9cc5f2;stroke-linecap:round;stroke-miterlimit:10;stroke-width:15px;}.cls-3{fill:#9cc5f2;}.cls-4{fill:#3290f0;}.cls-5{fill:#c3cfd9;mix-blend-mode:multiply;}.cls-6{fill:#cfdce6;}.cls-6,.cls-9{mix-blend-mode:soft-light;}.cls-7{fill:#b7d4fb;}.cls-8{fill:#4c9cfb;}.cls-9{fill:#fff;}.cls-10{fill:#80b9fc;}</style></defs><g class="cls-1"><g id="Слой_1" data-name="Слой 1"><path class="cls-2" d="M173.88,396.65c30.79,31.63,76.25,39.73,108.44,22.3,38.11-20.63,55.73-76,32.54-123.84" transform="translate(-79.57 -23.65)"/><polygon class="cls-3" points="306.96 299.09 300.02 312.41 234.47 278.16 205.1 346.05 191.33 340.07 227.11 257.4 306.96 299.09"/><path class="cls-4" d="M134.27,270.29h-9.48V377.56h9.48c25,0,45.22-24,45.22-53.63S159.24,270.29,134.27,270.29Z" transform="translate(-79.57 -23.65)"/><path class="cls-5" d="M124.79,374.66v2.9h9.48c10.61,0,20.36-4.34,28.07-11.6l-37.55.41Z" transform="translate(-79.57 -23.65)"/><path class="cls-6" d="M144.82,307l32.26-.31A56.08,56.08,0,0,0,167,287l-22.39.21Z" transform="translate(-79.57 -23.65)"/><path class="cls-6" d="M144.62,283.4l19.08-.18c-1-1-2-1.94-3-2.83l-16.07.15Z" transform="translate(-79.57 -23.65)"/><ellipse class="cls-7" cx="45.22" cy="300.28" rx="45.22" ry="53.64"/><ellipse class="cls-8" cx="45.22" cy="300.28" rx="43.74" ry="51.87"/><path class="cls-6" d="M103.13,369l63-62A54,54,0,0,0,156,287.61l-67.07,66A47.74,47.74,0,0,0,103.13,369Z" transform="translate(-79.57 -23.65)"/><path class="cls-6" d="M167,337.48l-38.77,38.15C146.91,373.89,162.27,358.28,167,337.48Z" transform="translate(-79.57 -23.65)"/><path class="cls-6" d="M83,308.6l36.78-36.2a38.2,38.2,0,0,0-12.54,4L88.65,294.7A56.38,56.38,0,0,0,83,308.6Z" transform="translate(-79.57 -23.65)"/><path class="cls-6" d="M86.5,349l66.13-65.08c-.79-.79-1.62-1.52-2.46-2.24l-65.07,64C85.54,346.84,86,347.94,86.5,349Z" transform="translate(-79.57 -23.65)"/><ellipse class="cls-9" cx="46.23" cy="301.73" rx="31.11" ry="36.9"/><ellipse class="cls-10" cx="45.22" cy="300.28" rx="31.11" ry="36.9"/><path class="cls-5" d="M95.76,327.05c0-20.38,13.93-36.9,31.11-36.9,9.29,0,17.63,4.84,23.33,12.5C144.56,293.2,135.29,287,124.79,287c-17.18,0-31.11,16.52-31.11,36.9a40.87,40.87,0,0,0,7.78,24.4A41.61,41.61,0,0,1,95.76,327.05Z" transform="translate(-79.57 -23.65)"/><path class="cls-4" d="M305.92,23.65H285.16v235h20.76c54.7,0,99-52.6,99-117.48S360.62,23.65,305.92,23.65Z" transform="translate(-79.57 -23.65)"/><path class="cls-5" d="M285.16,252.23v6.37h20.76c23.24,0,44.59-9.52,61.48-25.41l-82.24.9Z" transform="translate(-79.57 -23.65)"/><path class="cls-6" d="M329,104l70.66-.67a123,123,0,0,0-22-43.13l-49.05.47Z" transform="translate(-79.57 -23.65)"/><path class="cls-6" d="M328.58,52.37l41.79-.4q-3.21-3.27-6.65-6.21l-35.2.34Z" transform="translate(-79.57 -23.65)"/><ellipse class="cls-7" cx="205.59" cy="117.47" rx="99.04" ry="117.47"/><ellipse class="cls-8" cx="205.59" cy="117.47" rx="95.79" ry="113.61"/><path class="cls-6" d="M237.73,239.82,375.69,104a118.3,118.3,0,0,0-22.17-42.45L206.63,206.15A104.55,104.55,0,0,0,237.73,239.82Z" transform="translate(-79.57 -23.65)"/><path class="cls-6" d="M377.62,170.79l-84.89,83.56C333.6,250.56,367.25,216.36,377.62,170.79Z" transform="translate(-79.57 -23.65)"/><path class="cls-6" d="M193.62,107.56l80.56-79.29a83.71,83.71,0,0,0-27.45,8.78L206,77.12A122.87,122.87,0,0,0,193.62,107.56Z" transform="translate(-79.57 -23.65)"/><path class="cls-6" d="M201.31,196.06,346.14,53.51c-1.74-1.71-3.56-3.33-5.4-4.89L198.24,188.87Q199.67,192.53,201.31,196.06Z" transform="translate(-79.57 -23.65)"/><ellipse class="cls-9" cx="207.79" cy="120.66" rx="68.14" ry="80.82"/><ellipse class="cls-10" cx="205.59" cy="117.47" rx="68.14" ry="80.82"/><path class="cls-5" d="M221.58,148c0-44.64,30.51-80.82,68.14-80.82,20.35,0,38.6,10.59,51.08,27.37-12.33-20.69-32.65-34.21-55.64-34.21-37.63,0-68.14,36.18-68.14,80.81,0,20.5,6.45,39.2,17,53.45A91,91,0,0,1,221.58,148Z" transform="translate(-79.57 -23.65)"/></g></g></svg>