<svg id="Слой_1" data-name="Слой 1" xmlns="http://www.w3.org/2000/svg" viewBox="0 0 394.13 252.9"><defs><style>.cls-1{fill:none;stroke:#9cc5f2;stroke-linecap:round;stroke-width:15px;}.cls-1,.cls-5{stroke-miterlimit:10;}.cls-2{fill:#9cc5f2;}.cls-3{fill:#80b9fc;}.cls-4,.cls-5{fill:#fff;}.cls-5{font-size:110px;stroke:#fff;stroke-width:2px;font-family:Gilroy-Semibold, Gilroy;font-weight:600;}</style></defs><path class="cls-1" d="M166.3,116.71c16.7-36.57,52.65-60.41,92-61C296,55.14,331,76,349.45,109" transform="translate(-61.66 -32.44)"/><polygon class="cls-2" points="206.37 73.25 209.36 58.53 281.82 73.36 291.31 0 306.2 1.94 294.62 91.28 206.37 73.25"/><path class="cls-3" d="M126.66,151.6a65,65,0,1,1-65,65,65,65,0,0,1,65-65" transform="translate(-61.66 -32.44)"/><path class="cls-4" d="M134.69,207.94v-9.67H156.8V183.53H96.59v14.74H118.7v9.66c-18,.82-31.48,4.38-31.48,8.65s13.52,7.82,31.48,8.65v31h16v-31c17.94-.83,31.43-4.39,31.43-8.65s-13.49-7.81-31.43-8.64m0,14.66h0c-.45,0-2.77.16-7.93.16-4.12,0-7-.11-8.05-.17v0C102.83,221.9,91,219.14,91,215.83s11.85-6.07,27.73-6.77v10.79c1,.07,4,.25,8.12.25,4.93,0,7.41-.21,7.86-.25V209.06c15.85.7,27.68,3.47,27.68,6.77s-11.83,6.06-27.68,6.77" transform="translate(-61.66 -32.44)"/><circle class="cls-3" cx="329.13" cy="183.77" r="65"/><text class="cls-5" transform="translate(299.1 223.85)">?</text></svg>