<svg xmlns="http://www.w3.org/2000/svg" viewBox="0 0 99.09 129.34"><defs><style>.cls-1{isolation:isolate;}.cls-2{fill:#3290f0;}.cls-3{fill:#c3cfd9;mix-blend-mode:multiply;}.cls-4{fill:#cfdce6;}.cls-4,.cls-7{mix-blend-mode:soft-light;}.cls-5{fill:#b7d4fb;}.cls-6{fill:#4c9cfb;}.cls-7,.cls-9{fill:#fff;}.cls-8{fill:#80b9fc;}</style></defs><g class="cls-1"><g id="Слой_1" data-name="Слой 1"><path class="cls-2" d="M68.17,7.73H82V137.07H68.17c-23.54,0-42.62-28.95-42.62-64.67S44.63,7.73,68.17,7.73Z" transform="translate(-25.55 -7.73)"/><path class="cls-3" d="M82,133.56v3.51H68.17c-10,0-19.19-5.24-26.46-14l40.31.5Z" transform="translate(-25.55 -7.73)"/><path class="cls-4" d="M58.23,51.94l-30.41-.37a76.2,76.2,0,0,1,9.49-23.75l21.1.26Z" transform="translate(-25.55 -7.73)"/><path class="cls-4" d="M58.42,23.54l-18-.22c.92-1.2,1.88-2.34,2.86-3.42l15.16.19Z" transform="translate(-25.55 -7.73)"/><ellipse class="cls-5" cx="56.47" cy="64.67" rx="42.63" ry="64.67"/><ellipse class="cls-6" cx="56.47" cy="64.67" rx="41.22" ry="62.55"/><path class="cls-4" d="M102.43,126.73,43.05,52a73.2,73.2,0,0,1,9.54-23.37l63.22,79.59A54.58,54.58,0,0,1,102.43,126.73Z" transform="translate(-25.55 -7.73)"/><path class="cls-4" d="M42.22,88.74l36.54,46C61.17,132.65,46.68,113.82,42.22,88.74Z" transform="translate(-25.55 -7.73)"/><path class="cls-7" d="M121.41,53.92,86.74,10.28a30.61,30.61,0,0,1,11.81,4.83l17.52,22.06A79.33,79.33,0,0,1,121.41,53.92Z" transform="translate(-25.55 -7.73)"/><path class="cls-4" d="M118.1,102.64,55.77,24.17c.75-.94,1.53-1.83,2.32-2.69l61.33,77.21C119,100,118.57,101.35,118.1,102.64Z" transform="translate(-25.55 -7.73)"/><ellipse class="cls-7" cx="55.52" cy="66.42" rx="29.32" ry="44.49"/><ellipse class="cls-8" cx="56.47" cy="64.67" rx="29.32" ry="44.49"/><path class="cls-3" d="M107.57,73.66c0-24.57-13.13-44.49-29.32-44.49a20,20,0,0,0-4.38.49A20.26,20.26,0,0,1,82,27.91c16.2,0,29.33,19.92,29.33,44.49,0,22.32-10.83,40.79-25,44C98.62,111,107.57,93.94,107.57,73.66Z" transform="translate(-25.55 -7.73)"/><path class="cls-9" d="M85.51,66V58.83h12V48H64.75V58.83h12V66c-9.8.61-17.16,3.23-17.16,6.38S67,78.09,76.8,78.71v22.83h8.71V78.7c9.78-.61,17.13-3.23,17.13-6.37S95.29,66.57,85.51,66m0,10.81h0c-.24,0-1.51.13-4.32.13-2.25,0-3.83-.09-4.39-.13h0c-8.65-.52-15.11-2.56-15.11-5s6.46-4.48,15.11-5v8c.57.05,2.19.18,4.43.18a37.61,37.61,0,0,0,4.28-.18v-8c8.64.52,15.09,2.56,15.09,5s-6.45,4.47-15.09,5" transform="translate(-25.55 -7.73)"/></g></g></svg>