<svg width="37" height="38" viewBox="0 0 37 38" fill="#333333" xmlns="http://www.w3.org/2000/svg">
<path fill-rule="evenodd" clip-rule="evenodd" d="M24.3076 22.9512C24.8596 22.9472 25.3109 23.3919 25.3149 23.9439C25.319 24.4959 24.8743 24.9471 24.3223 24.9512L12.3226 25.0392C11.7706 25.0433 11.3194 24.5986 11.3153 24.0466C11.3113 23.4946 11.756 23.0433 12.308 23.0393L24.3076 22.9512ZM24.271 17.9514C24.8229 17.9473 25.2742 18.392 25.2783 18.944C25.2823 19.496 24.8376 19.9473 24.2856 19.9513L12.2859 20.0394C11.734 20.0434 11.2827 19.5987 11.2786 19.0467C11.2746 18.4947 11.7193 18.0435 12.2713 18.0394L24.271 17.9514ZM24.2343 12.9515C24.7863 12.9475 25.2375 13.3922 25.2416 13.9441C25.2456 14.4961 24.8009 14.9474 24.2489 14.9515L12.2493 15.0395C11.6973 15.0435 11.246 14.5988 11.242 14.0468C11.2379 13.4949 11.6826 13.0436 12.2346 13.0395L24.2343 12.9515Z" />
</svg>
