<svg xmlns="http://www.w3.org/2000/svg" width="16" height="16" viewBox="0 0 16 16" class="base-0-2-1" ie-style=""><path fill-rule="evenodd" d="M13 12c.552 0 1 .448 1 1s-.448 1-1 1H7c-.552 0-1-.448-1-1s.448-1 1-1h6zM3 12c.552 0 1 .448 1 1s-.448 1-1 1-1-.448-1-1 .448-1 1-1zm10-5c.552 0 1 .448 1 1s-.448 1-1 1H7c-.552 0-1-.448-1-1s.448-1 1-1h6zM3 7c.552 0 1 .448 1 1s-.448 1-1 1-1-.448-1-1 .448-1 1-1zm0-5c.552 0 1 .448 1 1s-.448 1-1 1-1-.448-1-1 .448-1 1-1zm10 0c.552 0 1 .448 1 1s-.448 1-1 1H7c-.552 0-1-.448-1-1s.448-1 1-1h6z"></path></svg>