<svg width="20" height="20" viewBox="0 0 20 20" fill="none" xmlns="http://www.w3.org/2000/svg">
<path d="M14.2839 13.0427L14.2838 13.0427C14.2113 13.035 14.1417 13.0275 14.0749 13.0203C13.3917 12.947 13.0097 12.9061 12.954 12.9022C12.4492 12.8674 11.917 12.8883 11.4745 13.1127C11.2289 13.2372 11.0126 13.4236 10.8602 13.6774C10.7128 13.9232 10.6589 14.1759 10.6445 14.3879C10.6183 14.7716 10.7166 15.1648 10.7842 15.4247C10.8073 15.5135 10.8297 15.5963 10.8511 15.6759C10.9064 15.8807 10.9558 16.0635 10.9956 16.2668C11.1342 16.9742 10.599 17.4999 10 17.4999C7.92866 17.4999 6.05503 16.6615 4.6967 15.3032C3.33837 13.9448 2.5 12.0712 2.5 9.99988C2.5 7.92853 3.33837 6.0549 4.6967 4.69658C6.05503 3.33825 7.92866 2.49988 10 2.49988C12.0713 2.49988 13.945 3.33825 15.3033 4.69658C16.6616 6.0549 17.5 7.92853 17.5 9.99988C17.5 11.4138 17.0434 12.1533 16.5314 12.5477C15.9854 12.9682 15.1903 13.1399 14.2839 13.0428C14.2839 13.0428 14.2839 13.0427 14.2839 13.0427Z" stroke="#2C2D2E" stroke-width="2"/>
<rect x="10.8" y="4.7998" width="2.5" height="2.5" rx="1.25" fill="#2C2D2E"/>
<rect x="13.2001" y="8.19983" width="2.5" height="2.5" rx="1.25" fill="#2C2D2E"/>
<rect x="4.30005" y="8.19983" width="2.5" height="2.5" rx="1.25" fill="#2C2D2E"/>
<rect x="6.59998" y="4.7998" width="2.5" height="2.5" rx="1.25" fill="#2C2D2E"/>
</svg>
