<svg width="20" height="21" viewBox="0 0 20 21" fill="none" xmlns="http://www.w3.org/2000/svg">
<path fill-rule="evenodd" clip-rule="evenodd" d="M15.0001 4.78363C15.0001 3.79807 14.2041 3 13.2211 3C11.4041 3 8.59606 3 6.77906 3C5.79606 3 5.00006 3.79807 5.00006 4.78363C5.00006 7.53176 5.00006 12.8185 5.00006 16.0047C5.00006 16.4198 5.25606 16.7928 5.64306 16.9412C6.03106 17.0896 6.46906 16.9833 6.74606 16.6735C7.73906 15.5596 8.90806 14.2502 9.53906 13.5424C9.65606 13.411 9.82406 13.3358 10.0001 13.3358C10.1761 13.3358 10.3441 13.411 10.4611 13.5424C11.0921 14.2502 12.2611 15.5596 13.2541 16.6735C13.5311 16.9833 13.9691 17.0896 14.3571 16.9412C14.7441 16.7928 15.0001 16.4198 15.0001 16.0047C15.0001 12.8185 15.0001 7.53176 15.0001 4.78363Z" fill="#FC2C38"/>
</svg>
