<svg width="20" height="20" viewBox="0 0 20 20" fill="none" xmlns="http://www.w3.org/2000/svg">
<path fill-rule="evenodd" clip-rule="evenodd" d="M12.8646 2.89284C14.0361 1.72127 15.9356 1.72127 17.1072 2.89284C18.2788 4.06441 18.2788 5.96391 17.1072 7.13548L14.7169 9.52574L16.7555 14.0106C17.1243 14.8219 16.9511 15.7769 16.3209 16.4071C15.4489 17.2791 14.0219 17.2346 13.206 16.3098L10.7342 13.5085L10.1293 14.1134L10.3525 15.3787C10.4785 16.0925 10.2483 16.8228 9.73576 17.3354C8.71393 18.3572 7.00388 18.1467 6.26039 16.9075L5.07244 14.9276L3.09253 13.7397C1.85338 12.9962 1.64286 11.2861 2.66469 10.2643C3.17722 9.75175 3.90758 9.52153 4.62137 9.64749L5.88662 9.87077L6.49154 9.26585L3.69025 6.79413C2.76552 5.97818 2.72097 4.5512 3.59301 3.67917C4.22319 3.04898 5.17819 2.8758 5.98952 3.24459L10.4743 5.28312L12.8646 2.89284ZM15.693 4.30705C15.3025 3.91653 14.6693 3.91653 14.2788 4.30705L11.3985 7.18736C11.1037 7.48211 10.657 7.56311 10.2776 7.39062L5.16192 5.06533C5.10955 5.04152 5.0479 5.0527 5.00722 5.09338C4.95093 5.14967 4.9538 5.24178 5.0135 5.29445L8.61295 8.47044C8.81994 8.65308 8.94223 8.91316 8.95084 9.18908C8.95946 9.46499 8.85363 9.73219 8.65844 9.92739L6.93268 11.6531C6.70194 11.8839 6.37314 11.9875 6.05179 11.9308L4.2738 11.6171C4.2027 11.6045 4.12995 11.6274 4.0789 11.6785C3.97712 11.7803 3.99809 11.9506 4.12152 12.0247L6.3158 13.3412C6.45655 13.4257 6.57435 13.5435 6.6588 13.6842L7.97537 15.8785C8.04943 16.002 8.21976 16.0229 8.32154 15.9211C8.37259 15.8701 8.39553 15.7973 8.38298 15.7262L8.06922 13.9483C8.01251 13.6269 8.11616 13.2981 8.34689 13.0674L10.0727 11.3416C10.2679 11.1464 10.5351 11.0406 10.811 11.0492C11.0869 11.0578 11.347 11.1801 11.5296 11.3871L14.7056 14.9866C14.7583 15.0463 14.8504 15.0492 14.9067 14.9929C14.9474 14.9522 14.9586 14.8905 14.9348 14.8382L12.6094 9.72246C12.437 9.34298 12.5179 8.8963 12.8127 8.60155L15.693 5.72127C16.0835 5.33074 16.0835 4.69758 15.693 4.30705Z" fill="#C15DF3"/>
</svg>
